mtllib converted_handr_Link2_625b57ff.mtl
usemtl material
v 0.0017253870610147715 0.0034942275378853083 -0.010593053884804249
v 0.0011248616501688957 0.003600538009777665 -0.010376865975558758
v 0.0005057640373706818 0.0034183862153440714 -0.010329865850508213
v 0.0003857105039060116 0.0015537177678197622 -0.011423530988395214
v 0.0009862357983365655 0.0014474056661128998 -0.01163971982896328
v 0.0016053335275501013 0.001629559206776321 -0.011686718091368675
v 0.0020771166309714317 0.0020513690542429686 -0.0115519342944026
v 0.0022751716896891594 0.002599813975393772 -0.011271480470895767
v -0.00016407421207986772 0.0024481313303112984 -0.010745104402303696
v -3.533228300511837e-05 0.0019200077513232827 -0.011096078902482986
v 3.3980679290834814e-05 0.00299657485447824 -0.010464651510119438
v 0.0021464296150952578 0.003127936040982604 -0.010920505970716476
v 0.0017281852196902037 -0.0003184883389621973 -0.008710363879799843
v 0.0023472828324884176 -0.00013633481285069138 -0.008757362142205238
v 0.0028190661687403917 0.00028547493275254965 -0.008622578345239162
v 0.0030171212274581194 0.000833920028526336 -0.00834212452173233
v 0.0028883791528642178 0.0013620419194921851 -0.00799115002155304
v 0.002467336365953088 0.0017283335328102112 -0.007663697935640812
v 0.001866811071522534 0.001834644004702568 -0.007447509560734034
v 0.0001478564809076488 0.00021481653675436974 -0.01587999239563942
v 0.001098624779842794 -0.00047085381811484694 -0.01581156812608242
v 0.0012580986367538571 -2.924554246419575e-05 -0.015585747547447681
v 0.0007187448791228235 -0.0008104945300146937 -0.01592009700834751
v 0.00022024742793291807 -0.0009571650298312306 -0.015882253646850586
v 0.0008154119714163244 0.0006909359362907708 -0.015039478428661823
v 0.00033186894143000245 0.0007765372865833342 -0.01486540399491787
v 0.0011544355656951666 0.0003959981258958578 -0.015303143300116062
v 0.001492160838097334 -0.003984412178397179 -0.010860499925911427
v 0.0019906582310795784 -0.0038377416785806417 -0.010898343287408352
v 0.0023705381900072098 -0.0034981011413037777 -0.010789815336465836
v 0.002530012046918273 -0.003056492656469345 -0.010563993826508522
v 0.0024263488594442606 -0.002631249139085412 -0.010281389579176903
v 0.0020873253233730793 -0.0023363111540675163 -0.010017724707722664
v 0.0016037824098020792 -0.002250709803774953 -0.00984365027397871
v 0.0007193004712462425 0.0067941127344965935 -0.011335977353155613
v 0.00199121399782598 0.0037668657023459673 -0.0063142236322164536
v 0.0012177979806438088 0.006940783467143774 -0.011373820714652538
v 0.0024897113908082247 0.003913536202162504 -0.006352066528052092
v 0.0015976778231561184 0.007280425634235144 -0.011265290901064873
v 0.002869591349735856 0.004253178369253874 -0.006243537645787001
v 0.0017571515636518598 0.007722030859440565 -0.011039471253752708
v 0.0030290649738162756 0.004694783594459295 -0.006017717532813549
v 0.0016534887254238129 0.008147277869284153 -0.01075686514377594
v 0.002925402019172907 0.005120030138641596 -0.005735111888498068
v 0.001314464956521988 0.008442211896181107 -0.010493203066289425
v 0.002586378250271082 0.005414965096861124 -0.005471448879688978
v 0.0008309221011586487 0.008527816273272038 -0.010319125838577747
v 0.0021028355695307255 0.005500569473952055 -0.005297372117638588
v 0.0006469094078056514 0.00796609278768301 -0.011333717033267021
v 0.000884763547219336 0.009304995648562908 -0.006877254229038954
v 0.0014852889580652118 0.009198685176670551 -0.007093442603945732
v 0.002104386454448104 0.009380836971104145 -0.007140441797673702
v 0.002224439987912774 0.011245504952967167 -0.0060467771254479885
v 0.0016239146934822202 0.011351815424859524 -0.00583058875054121
v 0.0010048170806840062 0.01116966363042593 -0.00578358955681324
v 0.0027742248494178057 0.010351091623306274 -0.00672520324587822
v 0.002645482774823904 0.01087921392172575 -0.0063742296770215034
v 0.002576169790700078 0.009802648797631264 -0.007005656138062477
v 0.0005330336862243712 0.010747852735221386 -0.005918375216424465
v 0.0003349788021296263 0.0101994089782238 -0.006198828108608723
v 0.00046372084761969745 0.0096712876111269 -0.006549801677465439
v 0.00222723837941885 0.0074327909387648106 -0.004164086189121008
v 0.002846335992217064 0.007614943198859692 -0.004211085848510265
v 0.003318119328469038 0.008036754094064236 -0.00407630018889904
v 0.003516174154356122 0.008585197851061821 -0.0037958475295454264
v 0.0033874320797622204 0.009113320149481297 -0.003444873495027423
v 0.002966389525681734 0.009479611180722713 -0.0031174211762845516
v 0.0023658641148358583 0.00958592165261507 -0.0029012328013777733
v 0.001218353514559567 0.014545390382409096 -0.006789700593799353
v 0.002490266924723983 0.011518143117427826 -0.001767946989275515
v 0.0017168510239571333 0.014692062512040138 -0.006827543023973703
v 0.002988764550536871 0.011664815247058868 -0.0018057890702039003
v 0.002096730750054121 0.015031701885163784 -0.006719015538692474
v 0.0033686442766338587 0.012004454620182514 -0.0016972617013379931
v 0.002256204839795828 0.015473311766982079 -0.006493193097412586
v 0.0035281183663755655 0.012446064502000809 -0.0014714391436427832
v 0.0021525416523218155 0.015898555517196655 -0.006210588850080967
v 0.003424455178901553 0.012871308252215385 -0.0011888350127264857
v 0.0018135181162506342 0.016193492338061333 -0.005946924444288015
v 0.003085431642830372 0.013166246004402637 -0.0009251705487258732
v 0.0013299750862643123 0.01627909392118454 -0.005772849544882774
v 0.002601888496428728 0.013251847587525845 -0.0007510956493206322
v 0.0011459626257419586 0.01571737416088581 -0.006787438876926899
v -0.00036789794103242457 0.017812490463256836 -0.003462598193436861
v -0.0005741275381296873 0.017628105357289314 -0.0035215162206441164
v 0.0006920300656929612 0.015289784409105778 0.000722197350114584
v 0.0004858004685956985 0.015105399303138256 0.0006632792064920068
v -0.0006451410008594394 0.017701348289847374 -0.0036385974381119013
v -0.00048625358613207936 0.017934560775756836 -0.0036577333230525255
v -0.0007755579426884651 0.0177500881254673 -0.003707381896674633
v -0.0007036148454062641 0.018015794456005096 -0.003772373776882887
v -0.0009304328123107553 0.017761265859007835 -0.0037094384897500277
v -0.0009617398027330637 0.018034424632787704 -0.003775801742449403
v 0.0007233370561152697 0.015016625635325909 0.00078856066102162
v -0.0028330443892627954 0.017642952501773834 -0.003298865631222725
v -0.0027835220098495483 0.017921138554811478 -0.0033826713915914297
v -7.116928463801742e-05 0.002676374977454543 -0.006449238862842321
v -0.0019318342674523592 -0.022445235401391983 -0.021360905840992928
v -0.0016942976508289576 -0.02253400906920433 -0.021235624328255653
v 0.004723700694739819 0.015265385620296001 -7.46952136978507e-05
v 0.004692393355071545 0.015538543462753296 -0.00014105852460488677
v 0.0016226870939135551 0.015072550624608994 0.000594486016780138
v -0.0034268866293132305 0.017864886671304703 -0.0036120701115578413
v -0.003238218603655696 0.018091069534420967 -0.00362248788587749
v -0.0017477849032729864 -0.022605355829000473 -0.021504046395421028
v 0.004876443184912205 0.015378427691757679 -0.0002841967507265508
v -0.00427482882514596 0.01988305151462555 -0.006959905382245779
v -0.004051038064062595 0.02002563886344433 -0.006831652019172907
v -0.0028077128808945417 -0.02008264884352684 -0.025688841938972473
v -0.0029917622450739145 -0.0199225302785635 -0.025545701384544373
v -0.000794947671238333 -0.02247808501124382 -0.021429698914289474
v 0.002252578502520919 -0.02235659584403038 -0.02236730232834816
v 0.0023060657549649477 -0.022285249084234238 -0.022098880261182785
v 0.0024588084779679775 -0.02217220701277256 -0.022308381274342537
v 0.003929194062948227 0.0029251347295939922 -0.007312494330108166
v 0.003632465610280633 0.01806125044822693 -0.004325854126363993
v 0.0038165149744600058 0.017901133745908737 -0.004468992352485657
v -0.0038929723668843508 0.020165659487247467 -0.00748366117477417
v -0.0037586556281894445 0.020242027938365936 -0.007232682313770056
v -0.0033480676356703043 -0.01978936977684498 -0.025733623653650284
v -0.003401554888114333 -0.01986071467399597 -0.02600204572081566
v -0.0031931926496326923 -0.019800547510385513 -0.025731567293405533
v -0.0031434299889951944 -0.01987934485077858 -0.025998616591095924
v -0.0030627758242189884 -0.01984928734600544 -0.025662781670689583
v -0.002926068613305688 -0.01996057853102684 -0.025883976370096207
v 0.004045629408210516 0.018070697784423828 -0.004783244803547859
v 0.004014322068542242 0.018343856558203697 -0.004849608056247234
v 0.00390779459849 0.018041318282485008 -0.004718022886663675
v 0.0037845978513360023 0.018294891342520714 -0.004740904550999403
v 0.003823932958766818 0.017979254946112633 -0.004602998495101929
v 0.00364482868462801 0.018191449344158173 -0.0045491973869502544
v 0.004888312891125679 0.020711718127131462 -0.009378612972795963
v 0.004860971122980118 0.020778032019734383 -0.00909274909645319
v -0.005223337095230818 -0.0199740007519722 -0.025608913972973824
v -0.005250679329037666 -0.01990768127143383 -0.02532305009663105
v 0.0013988803839311004 -0.019649500027298927 -0.026493176817893982
v 0.0011926505248993635 -0.019833888858556747 -0.026552097871899605
v 0.00583610450848937 0.018457142636179924 -0.0052427384071052074
v 0.005948240868747234 0.01818901114165783 -0.005193817429244518
v 0.00548215489834547 0.020489782094955444 -0.009065407328307629
v 0.005315667018294334 0.020608101040124893 -0.008852934464812279
v -0.005678033456206322 -0.01980406977236271 -0.02584873139858246
v -0.005844521336257458 -0.01968574896454811 -0.025636255741119385
v 0.0014062982518225908 -0.01957138068974018 -0.026627182960510254
v 0.0012050135992467403 -0.019703689962625504 -0.026775440201163292
v 0.0014901598915457726 -0.019509315490722656 -0.026742206886410713
v 0.0013447828823700547 -0.019600247964262962 -0.02696714736521244
v 0.001627994468435645 -0.019479935988783836 -0.026807429268956184
v 0.0015745072159916162 -0.01955128274857998 -0.02707585133612156
v 0.0061284867115318775 0.018673531711101532 -0.005643770098686218
v 0.0063300970941782 0.018471619114279747 -0.0057175722904503345
v -0.006490853149443865 -0.017869500443339348 -0.02905789576470852
v -0.006692463532090187 -0.017667584121227264 -0.02898409031331539
v 0.003530606161803007 -0.019361624494194984 -0.027218002825975418
v 0.003396289423108101 -0.019437996670603752 -0.027468981221318245
v -0.00619847048074007 -0.01765311136841774 -0.029458925127983093
v -0.006310607306659222 -0.017384976148605347 -0.029507845640182495
v 0.0039124623872339725 -0.019079016521573067 -0.027741756290197372
v 0.0036886713933199644 -0.019221607595682144 -0.02787001244723797
v 0.0024211560375988483 -0.017117107287049294 -0.031318992376327515
v 0.002470678184181452 -0.01683891750872135 -0.031402796506881714
v 0.003064520424231887 -0.01706085167825222 -0.03108959272503853
v 0.0028758521657437086 -0.017287038266658783 -0.03107917681336403
v 0.00124771345872432 0.0016524920938536525 -0.007400509901344776
v 0.0008281806949526072 0.0027323004323989153 -0.0066433134488761425
v 0.0007759301224723458 0.001230680732987821 -0.007535295560956001
v 0.000565931259188801 -0.003178627695888281 -0.01014015544205904
v 0.0007254050578922033 -0.0027370210736989975 -0.009914334863424301
v 0.0007066171383485198 0.00015411376080010086 -0.00816672295331955
v 0.0011052850168198347 -0.002397378673776984 -0.00980580598115921
v 0.0011276599252596498 -0.00021217622270341963 -0.008494175039231777
v 0.0010086179245263338 -0.0038988091982901096 -0.010686424560844898
v 0.0006695942720398307 -0.003603873075917363 -0.010422760620713234
v 0.0017281852196902037 -0.0003184883389621973 -0.008710363879799843
v 0.00057787518016994 0.0006822372088208795 -0.007815748453140259
v 0.0015076709678396583 0.0038524684496223927 -0.006140147801488638
v 0.0016043379437178373 0.0053538973443210125 -0.0052595301531255245
v 0.0010769282234832644 0.008433515205979347 -0.003269471926614642
v 0.0012749831657856703 0.008981958962976933 -0.0029890190344303846
v 0.0015640374040231109 0.01232392992824316 -0.001047601574100554
v 0.001723511260934174 0.012765536084771156 -0.0008217809372581542
v 0.001168647431768477 0.004147406201809645 -0.005876483395695686
v 0.0010649841278791428 0.0045726485550403595 -0.005593880079686642
v 0.0012244582176208496 0.005014258436858654 -0.0053680576384067535
v 0.001205670298077166 0.007905392907559872 -0.003620445728302002
v 0.0016267129685729742 0.0075391014106571674 -0.003947898279875517
v 0.0021033911034464836 0.013105178251862526 -0.0007132517639547586
v 0.0017467665020376444 0.009403769858181477 -0.0028542333748191595
v 0.0020067240111529827 0.011603748425841331 -0.0015938702272251248
v 0.0016677003586664796 0.011898682452738285 -0.0013302075676620007
v 0.00045159782166592777 0.015792783349752426 -0.005843534599989653
v 0.00029212399385869503 0.015351176261901855 -0.0060693551786243916
v 0.0008314777514897287 0.016132425516843796 -0.005735005717724562
v 0.0007348106591962278 0.014630994759500027 -0.006615623831748962
v 0.00039578689029440284 0.014925929717719555 -0.00635196128860116
v -4.7455221647396684e-05 0.008041505701839924 -0.010389811359345913
v -0.00020692926773335785 0.007599895820021629 -0.010615633800625801
v 0.00033242450444959104 0.00838114507496357 -0.010281284339725971
v 0.00023575751401949674 0.0068797157146036625 -0.011161901988089085
v 0.0007193004712462425 0.0067941127344965935 -0.011335977353155613
v -0.00010326603660359979 0.0071746534667909145 -0.010898237116634846
v -0.0001666284370003268 0.0006298684747889638 -0.01482755970209837
v -0.0005465083522722125 0.0002902261330746114 -0.01493608858436346
v -0.0007059822091832757 -0.00015138054732233286 -0.0151619091629982
v -0.0006023191963322461 -0.0005766258109360933 -0.015444514341652393
v -0.0002632955147419125 -0.0008715620497241616 -0.015708178281784058
v -0.0029955017380416393 0.00370475510135293 -0.006880829576402903
v -0.0020752535201609135 0.002904175315052271 -0.0075965216383337975
v -0.0015116025460883975 0.00017296649457421154 -0.0010221163975074887
v -0.0005913545610383153 -0.0006276132189668715 -0.0017378083430230618
v 0.005242484156042337 0.0033592237159609795 -0.009175647981464863
v 0.0062736328691244125 0.004281149711459875 -0.008881056681275368
v 0.006726383231580257 -0.00017256478895433247 -0.0033169349189847708
v 0.0077575319446623325 0.0007493611774407327 -0.003022343385964632
v 0.006994487252086401 0.015477440319955349 -0.0023142120335251093
v 0.006074239499866962 0.016278021037578583 -0.0015985199715942144
v 0.008478386327624321 0.011945651844143867 0.0035445010289549828
v 0.007558138575404882 0.012746231630444527 0.004260193090885878
v -0.006022293586283922 0.00952117145061493 -0.0026079106610268354
v -0.009840858168900013 0.006695099174976349 0.002629635389894247
v -0.005634141620248556 0.01554994285106659 0.0009280825615860522
v -0.009452705271542072 0.012723871506750584 0.00616562832146883
v 0.002486594719812274 0.0114611079916358 -0.001801399514079094
v 0.0036525153554975986 0.008686130866408348 0.0028018748853355646
v 0.003204748034477234 0.011672405526041985 -0.0018559179734438658
v 0.004370668902993202 0.008897429332137108 0.0027473564259707928
v 0.003752016695216298 0.012161706574261189 -0.001699567073956132
v 0.004917937330901623 0.009386729449033737 0.0029037073254585266
v 0.003981760237365961 0.012797900475561619 -0.0013742416631430387
v 0.005147681105881929 0.010022924281656742 0.00322903273627162
v 0.0038324196357280016 0.013410522602498531 -0.0009671116131357849
v 0.004998340271413326 0.010635546408593655 0.0036361627280712128
v 0.0033440100960433483 0.013835420832037926 -0.0005872671608813107
v 0.004509930964559317 0.011060443706810474 0.004016007296741009
v 0.0026474008336663246 0.013958741910755634 -0.0003364880394656211
v 0.0038133214693516493 0.011183765716850758 0.004266786389052868
v 0.0019875417929142714 0.003709829645231366 -0.006347676273435354
v 0.003153462428599596 0.0009348530438728631 -0.0017444018740206957
v 0.0027056951075792313 0.003921127412468195 -0.00640219496563077
v 0.003871615743264556 0.0011461508693173528 -0.0017989203333854675
v 0.003252963535487652 0.004410427995026112 -0.006245844066143036
v 0.00441888440400362 0.001635451102629304 -0.0016425696667283773
v 0.0034827073104679585 0.005046623293310404 -0.005920518189668655
v 0.004648628178983927 0.002271646400913596 -0.0013172437902539968
v 0.003333366708829999 0.005659244954586029 -0.005513388197869062
v 0.004499287344515324 0.0028842680621892214 -0.0009101139730773866
v 0.0028449571691453457 0.006084142252802849 -0.005133544094860554
v 0.004010877572000027 0.003309165593236685 -0.0005302697536535561
v 0.0021483476739376783 0.006207463797181845 -0.004882765002548695
v 0.003314268309623003 0.0034324873704463243 -0.0002794903703033924
v 0.0032347263768315315 0.007892687804996967 0.0006371809868142009
v 0.002386784180998802 0.009910852648317814 -0.002710654865950346
v 0.0038352517876774073 0.0077863759361207485 0.0004209919716231525
v 0.002987309591844678 0.009804540313780308 -0.0029268437065184116
v 0.004256294574588537 0.007420084904879332 9.35401112656109e-05
v 0.0034083521459251642 0.009438250213861465 -0.0032542957924306393
v 0.004385036416351795 0.006891962606459856 -0.0002574342070147395
v 0.003537094220519066 0.008910126984119415 -0.0036052700597792864
v 0.0041869813576340675 0.006343518383800983 -0.0005378873320296407
v 0.003339039394631982 0.00836168322712183 -0.0038857231847941875
v 0.003715198254212737 0.005921707954257727 -0.0006726723513565958
v 0.0028672560583800077 0.007939872331917286 -0.004020508378744125
v 0.003096100641414523 0.005739554762840271 -0.0006256736232899129
v 0.002248158445581794 0.0077577196061611176 -0.0039735096506774426
v 0.003324630670249462 0.006437172181904316 0.000634373165667057
v 0.0008279464673250914 0.0063230847008526325 0.0020927763544023037
v 0.0012160988990217447 0.01235185656696558 0.005628769285976887
v 0.00011345196980983019 0.006199835799634457 0.0023813433945178986
v 0.0005016043432988226 0.012228608131408691 0.005917336791753769
v -0.0004277214757166803 0.005941726732999086 0.002880818210542202
v -3.9569076761836186e-05 0.011970498599112034 0.006416811607778072
v -0.0007131845341064036 0.005588052328675985 0.0035151594784110785
v -0.00032503216061741114 0.011616824194788933 0.007051152642816305
v -0.0006994791910983622 0.005192656069993973 0.0041877939365804195
v -0.0003113267885055393 0.011221428401768208 0.00772378733381629
v -0.0026691670063883066 -0.0034214474726468325 0.032948315143585205
v -0.0008694544085301459 -0.013439306057989597 0.038401465862989426
v 0.005624269600957632 -0.0029057259671390057 0.03115863911807537
v 0.00742398202419281 -0.012923584319651127 0.03661178797483444
v -0.004283598158508539 -0.009511273354291916 0.023712104186415672
v 0.004009838681668043 -0.008995551615953445 0.02192242629826069
v -0.0011038151569664478 -0.017079390585422516 0.03626648709177971
v 0.007189621217548847 -0.016563668847084045 0.034476809203624725
v 0.004176189657300711 -0.0064117927104234695 0.023437852039933205
v -0.004117247182875872 -0.006927513983100653 0.025227529928088188
v 0.004096915014088154 0.002511402126401663 -0.007604383863508701
v 0.0049286698922514915 0.015430198982357979 -2.725601189013105e-05
v 0.0037789365742355585 0.003268214175477624 -0.008859822526574135
v 0.00461069168522954 0.01618701033294201 -0.0012826946331188083
v -0.0006117059965617955 0.00299518508836627 -0.007912347093224525
v 0.00022004908532835543 0.015913981944322586 -0.0003352187341079116
v -0.00029372761491686106 0.002238373039290309 -0.006656907964497805
v 0.0005380274960771203 0.015157169662415981 0.0009202199289575219
v 0.001301575917750597 0.012009327299892902 -0.001170775736682117
v 0.0017676865682005882 0.009728698991239071 -0.002663656137883663
v 0.0019292475190013647 0.01374744437634945 -0.0002819693472702056
v 0.0013819788582623005 0.01325814425945282 -0.00043832030496560037
v 0.0011522350832819939 0.01262194849550724 -0.0007636460941284895
v 0.001290932297706604 0.0038331514224410057 -0.006096896715462208
v 0.0012959032319486141 0.009306889027357101 -0.0027984410990029573
v 0.0010978482896462083 0.008758444339036942 -0.003078894456848502
v 0.001226590247824788 0.008230322040617466 -0.0034298684913665056
v 0.0014301944756880403 0.0059961662627756596 -0.004828246310353279
v 0.0017899853410199285 0.011584429070353508 -0.0015506201889365911
v 0.000882925814948976 0.005506865680217743 -0.004984597209841013
v 0.0006531820399686694 0.004870670847594738 -0.005309922620654106
v 0.0008025228162296116 0.0042580487206578255 -0.005717052612453699
v 0.001647633034735918 0.007864031009376049 -0.0037573203444480896
v 0.002955906093120575 0.008809452876448631 0.0030526542104780674
v 0.001819102675653994 0.0020956944208592176 -0.0007066482212394476
v -0.001123450230807066 0.006201738491654396 0.002513876650482416
v 0.0024674965534359217 0.009234351105988026 0.0034324987791478634
v 0.0023181557189673185 0.009846972301602364 0.003839628305286169
v 0.002547899493947625 0.010483167134225368 0.0041649541817605495
v 0.0030951681546866894 0.010972468182444572 0.004321305081248283
v 0.002596114994958043 0.0032211896032094955 -0.0002249719254905358
v 0.0020488465670496225 0.002731889020651579 -0.0003813226649072021
v 0.0024568529333919287 0.0010581747628748417 -0.001493622548878193
v 0.0019684433937072754 0.0014830721775069833 -0.0011137783294543624
v -0.002607349306344986 0.009733526967465878 -0.003344836411997676
v 0.0020745324436575174 0.006212157197296619 -8.203274046536535e-05
v 0.0019457904854789376 0.006740279495716095 0.0002689413377083838
v 0.0024955752305686474 0.00584586663171649 -0.00040948460809886456
v 0.0026156287640333176 0.007710534613579512 0.0006841797148808837
v 0.0021438454277813435 0.007288723718374968 0.0005493946955539286
f 1 2 3
f 4 5 6
f 6 7 8
f 9 10 11
f 11 10 4
f 11 4 3
f 3 4 6
f 3 6 1
f 1 6 8
f 1 8 12
f 5 13 6
f 6 13 14
f 6 14 7
f 7 14 15
f 7 15 8
f 8 15 16
f 8 16 12
f 12 16 17
f 12 17 1
f 1 17 18
f 1 18 2
f 2 18 19
f 20 21 22
f 23 21 20
f 24 23 20
f 20 25 26
f 27 25 20
f 22 27 20
f 24 28 23
f 23 28 29
f 23 29 21
f 21 29 30
f 21 30 22
f 22 30 31
f 22 31 27
f 27 31 32
f 27 32 25
f 25 32 33
f 25 33 26
f 26 33 34
f 35 36 37
f 37 36 38
f 37 38 39
f 39 38 40
f 39 40 41
f 41 40 42
f 41 42 43
f 43 42 44
f 43 44 45
f 45 44 46
f 45 46 47
f 47 46 48
f 49 39 41
f 37 39 49
f 35 37 49
f 49 45 47
f 43 45 49
f 41 43 49
f 50 51 52
f 53 54 55
f 56 57 53
f 52 58 56
f 55 59 60
f 56 53 52
f 52 53 55
f 52 55 50
f 50 55 60
f 50 60 61
f 51 62 52
f 52 62 63
f 52 63 58
f 58 63 64
f 58 64 56
f 56 64 65
f 56 65 57
f 57 65 66
f 57 66 53
f 53 66 67
f 53 67 54
f 54 67 68
f 69 70 71
f 71 70 72
f 71 72 73
f 73 72 74
f 73 74 75
f 75 74 76
f 75 76 77
f 77 76 78
f 77 78 79
f 79 78 80
f 79 80 81
f 81 80 82
f 83 73 75
f 71 73 83
f 69 71 83
f 83 79 81
f 77 79 83
f 75 77 83
f 84 85 86
f 86 85 87
f 85 84 88
f 88 84 89
f 88 89 90
f 90 89 91
f 90 91 92
f 92 91 93
f 94 86 87
f 92 93 95
f 95 93 96
f 94 87 97
f 97 87 98
f 97 98 99
f 100 101 102
f 102 101 86
f 102 86 94
f 95 96 103
f 103 96 104
f 105 99 98
f 106 101 100
f 103 104 107
f 107 104 108
f 105 98 109
f 109 98 110
f 99 105 111
f 111 105 112
f 111 112 113
f 113 114 115
f 115 114 106
f 115 106 100
f 101 106 116
f 116 106 117
f 107 108 118
f 118 108 119
f 120 121 122
f 122 121 123
f 122 123 124
f 124 123 125
f 124 125 110
f 110 125 109
f 112 114 113
f 126 127 128
f 128 127 129
f 128 129 130
f 130 129 131
f 130 131 117
f 117 131 116
f 118 119 132
f 132 119 133
f 121 120 134
f 134 120 135
f 114 112 136
f 136 112 137
f 127 126 138
f 138 126 139
f 132 133 140
f 140 133 141
f 134 135 142
f 142 135 143
f 136 137 144
f 144 137 145
f 144 145 146
f 146 145 147
f 146 147 148
f 148 147 149
f 138 139 150
f 150 139 151
f 150 151 141
f 141 151 140
f 142 143 152
f 152 143 153
f 148 149 154
f 154 149 155
f 152 153 156
f 156 153 157
f 154 155 158
f 158 155 159
f 156 157 160
f 160 157 161
f 158 159 162
f 162 159 163
f 162 163 161
f 161 163 160
f 140 162 132
f 132 162 161
f 139 154 151
f 151 154 158
f 103 143 95
f 95 143 135
f 118 157 107
f 107 157 153
f 148 126 146
f 146 126 128
f 146 128 144
f 144 128 130
f 144 130 136
f 136 130 117
f 110 85 124
f 124 85 88
f 124 88 122
f 122 88 90
f 122 90 120
f 120 90 92
f 160 163 159
f 145 152 147
f 147 152 156
f 147 156 149
f 149 156 160
f 149 160 155
f 155 160 159
f 137 112 105
f 134 142 121
f 121 142 152
f 121 152 123
f 123 152 145
f 123 145 125
f 125 145 137
f 125 137 109
f 109 137 105
f 89 141 91
f 91 141 133
f 91 133 93
f 93 133 119
f 119 108 93
f 93 108 104
f 93 104 96
f 84 86 101
f 138 150 127
f 127 150 141
f 127 141 129
f 129 141 89
f 129 89 131
f 131 89 84
f 131 84 116
f 116 84 101
f 132 161 118
f 118 161 157
f 151 158 140
f 140 158 162
f 126 148 139
f 139 148 154
f 106 114 117
f 117 114 136
f 164 19 165
f 164 165 166
f 167 168 169
f 169 168 170
f 169 170 171
f 19 18 115
f 172 173 111
f 111 173 167
f 18 17 115
f 115 17 16
f 115 16 113
f 113 16 15
f 113 15 31
f 31 30 113
f 113 30 29
f 113 29 111
f 111 29 28
f 111 28 172
f 171 170 174
f 174 170 34
f 174 34 14
f 14 34 33
f 14 33 15
f 15 33 32
f 15 32 31
f 97 99 111
f 167 169 111
f 111 169 175
f 111 175 97
f 165 36 176
f 65 64 46
f 46 64 63
f 46 63 48
f 48 63 62
f 48 62 177
f 178 179 102
f 102 179 180
f 102 180 181
f 176 182 165
f 165 182 183
f 165 183 178
f 178 183 184
f 178 184 185
f 185 184 177
f 185 177 186
f 186 177 62
f 181 187 102
f 102 187 82
f 102 82 100
f 100 82 80
f 19 115 165
f 165 115 38
f 165 38 36
f 67 72 68
f 68 72 70
f 68 70 188
f 188 70 189
f 188 189 179
f 179 189 190
f 179 190 180
f 80 78 100
f 100 78 76
f 100 76 115
f 115 76 74
f 115 74 65
f 65 74 72
f 65 72 66
f 66 72 67
f 46 44 65
f 65 44 42
f 65 42 115
f 115 42 40
f 115 40 38
f 102 94 178
f 178 94 97
f 178 97 165
f 165 97 175
f 165 175 166
f 85 110 87
f 87 110 98
f 95 135 92
f 92 135 120
f 107 153 103
f 103 153 143
f 83 191 192
f 193 191 83
f 81 193 83
f 83 194 69
f 195 194 83
f 192 195 83
f 81 82 193
f 193 82 187
f 193 187 191
f 191 187 181
f 191 181 192
f 192 181 180
f 192 180 195
f 195 180 190
f 195 190 194
f 194 190 189
f 194 189 69
f 69 189 70
f 54 68 55
f 55 68 188
f 55 188 59
f 59 188 179
f 59 179 60
f 60 179 178
f 60 178 61
f 61 178 185
f 61 185 50
f 50 185 186
f 50 186 51
f 51 186 62
f 49 196 197
f 198 196 49
f 47 198 49
f 49 199 200
f 201 199 49
f 197 201 49
f 47 48 198
f 198 48 177
f 198 177 196
f 196 177 184
f 196 184 197
f 197 184 183
f 197 183 201
f 201 183 182
f 201 182 199
f 199 182 176
f 199 176 35
f 35 176 36
f 26 34 202
f 202 34 170
f 202 170 203
f 203 170 168
f 203 168 204
f 204 168 167
f 204 167 205
f 205 167 173
f 205 173 206
f 206 173 172
f 206 172 24
f 24 172 28
f 20 203 204
f 202 203 20
f 26 202 20
f 20 206 24
f 205 206 20
f 204 205 20
f 2 19 3
f 3 19 164
f 3 164 11
f 11 164 166
f 11 166 9
f 9 166 175
f 9 175 10
f 10 175 169
f 10 169 4
f 4 169 171
f 4 171 5
f 5 171 174
f 207 208 209
f 209 208 210
f 211 212 213
f 213 212 214
f 215 216 217
f 217 216 218
f 219 220 221
f 221 220 222
f 223 224 225
f 225 224 226
f 225 226 227
f 227 226 228
f 227 228 229
f 229 228 230
f 229 230 231
f 231 230 232
f 231 232 233
f 233 232 234
f 233 234 235
f 235 234 236
f 237 238 239
f 239 238 240
f 239 240 241
f 241 240 242
f 241 242 243
f 243 242 244
f 243 244 245
f 245 244 246
f 245 246 247
f 247 246 248
f 247 248 249
f 249 248 250
f 251 252 253
f 253 252 254
f 253 254 255
f 255 254 256
f 255 256 257
f 257 256 258
f 257 258 259
f 259 258 260
f 259 260 261
f 261 260 262
f 261 262 263
f 263 262 264
f 265 255 257
f 253 255 265
f 251 253 265
f 265 261 263
f 259 261 265
f 257 259 265
f 266 267 268
f 268 267 269
f 268 269 270
f 270 269 271
f 270 271 272
f 272 271 273
f 272 273 274
f 274 273 275
f 276 277 278
f 278 277 279
f 280 281 282
f 282 281 283
f 281 280 284
f 284 280 285
f 277 282 279
f 279 282 283
f 274 275 284
f 284 275 278
f 278 279 284
f 284 279 283
f 284 283 281
f 282 277 276
f 280 282 285
f 285 282 276
f 285 276 220
f 220 276 222
f 286 287 288
f 288 287 289
f 290 291 292
f 292 291 293
f 294 252 295
f 296 297 293
f 293 297 298
f 294 295 298
f 262 260 286
f 286 260 258
f 286 258 287
f 287 258 256
f 287 256 254
f 239 286 237
f 237 286 292
f 237 292 299
f 298 295 293
f 293 295 300
f 293 300 301
f 302 249 303
f 294 304 252
f 252 304 223
f 252 223 254
f 254 223 225
f 287 233 293
f 293 233 235
f 293 235 296
f 302 303 301
f 301 303 305
f 301 305 293
f 293 305 306
f 293 306 292
f 292 306 307
f 292 307 299
f 239 241 286
f 286 241 243
f 286 243 262
f 243 245 262
f 262 245 247
f 262 247 264
f 264 247 249
f 264 249 308
f 308 249 302
f 225 227 254
f 254 227 229
f 254 229 287
f 287 229 231
f 287 231 233
f 212 211 215
f 215 211 288
f 215 288 216
f 216 288 289
f 266 224 309
f 214 244 242
f 224 266 310
f 310 266 311
f 310 311 209
f 309 312 266
f 266 312 313
f 266 313 267
f 267 313 314
f 314 315 267
f 267 315 236
f 267 236 218
f 218 236 234
f 218 234 217
f 217 234 232
f 217 232 230
f 214 242 213
f 250 226 316
f 316 226 224
f 316 224 317
f 317 224 310
f 244 214 246
f 246 214 217
f 246 217 248
f 248 217 230
f 248 230 250
f 250 230 228
f 250 228 226
f 242 240 213
f 213 240 238
f 213 238 210
f 210 238 318
f 210 318 209
f 209 318 319
f 209 319 310
f 216 289 287
f 293 273 271
f 222 276 278
f 271 269 293
f 293 269 267
f 293 267 287
f 287 267 218
f 287 218 216
f 278 275 222
f 222 275 273
f 222 273 221
f 221 273 293
f 221 293 291
f 217 214 215
f 215 214 212
f 208 290 292
f 288 211 286
f 286 211 213
f 286 213 292
f 292 213 210
f 292 210 208
f 320 219 221
f 208 207 290
f 290 207 320
f 290 320 291
f 291 320 221
f 209 311 207
f 207 311 320
f 219 320 220
f 220 320 311
f 220 311 285
f 270 311 268
f 268 311 266
f 270 272 311
f 311 272 274
f 311 274 285
f 285 274 284
f 265 321 322
f 323 321 265
f 263 323 265
f 265 324 251
f 325 324 265
f 322 325 265
f 263 264 323
f 323 264 308
f 323 308 321
f 321 308 302
f 321 302 322
f 322 302 301
f 322 301 325
f 325 301 300
f 325 300 324
f 324 300 295
f 324 295 251
f 251 295 252
f 249 250 303
f 303 250 316
f 303 316 305
f 305 316 317
f 305 317 306
f 306 317 310
f 306 310 307
f 307 310 319
f 307 319 299
f 299 319 318
f 299 318 237
f 237 318 238
f 235 236 296
f 296 236 315
f 296 315 297
f 297 315 314
f 297 314 298
f 298 314 313
f 298 313 294
f 294 313 312
f 294 312 304
f 304 312 309
f 304 309 223
f 223 309 224
